<?xml version="1.0" encoding="UTF-8"?>
<svg width="512px" height="512px" viewBox="0 0 512 512" version="1.1" xmlns="http://www.w3.org/2000/svg" xmlns:xlink="http://www.w3.org/1999/xlink">
    <!-- Generator: Sketch 52.6 (67491) - http://www.bohemiancoding.com/sketch -->
    <title>logo@1x</title>
    <desc>Created with Sketch.</desc>
    <defs>
        <path d="M279.085419,55.8332004 L413.837506,133.632354 C429.307559,142.563993 438.837506,159.070344 438.837506,176.933624 L438.837506,332.53193 C438.837506,350.39521 429.307559,366.901561 413.837506,375.8332 L279.085419,453.632354 C263.615366,462.563993 244.555473,462.563993 229.085419,453.632354 L94.3333333,375.8332 C78.8632795,366.901561 69.3333333,350.39521 69.3333333,332.53193 L69.3333333,176.933624 C69.3333333,159.070344 78.8632795,142.563993 94.3333333,133.632354 L229.085419,55.8332004 C244.555473,46.9015607 263.615366,46.9015607 279.085419,55.8332004 Z M346.677083,304.887048 C346.677083,293.32449 344.619812,283.558963 340.505208,275.590173 C336.390604,267.621383 330.661495,261.032907 323.317708,255.824548 C315.973922,250.616189 307.067761,246.18915 296.598958,242.543298 C286.130156,238.897446 274.437565,235.564146 261.520833,232.543298 C251.208282,229.939118 243.812522,227.959971 239.333333,226.605798 C234.854144,225.251625 230.427105,223.376643 226.052083,220.980798 C221.677061,218.584953 218.239596,215.720398 215.739583,212.387048 C213.239571,209.053698 211.989583,205.095404 211.989583,200.512048 C211.989583,193.116178 215.661422,186.788116 223.005208,181.527673 C230.348995,176.26723 240.010357,173.637048 251.989583,173.637048 C264.906315,173.637048 274.281221,176.058899 280.114583,180.902673 C285.947946,185.746447 290.947896,192.491171 295.114583,201.137048 C298.343766,207.178745 301.338528,211.52766 304.098958,214.183923 C306.859389,216.840186 310.895807,218.168298 316.208333,218.168298 C322.041696,218.168298 326.911439,215.954778 330.817708,211.527673 C334.723978,207.100568 336.677083,202.126659 336.677083,196.605798 C336.677083,190.564101 335.114599,184.366246 331.989583,178.012048 C328.864568,171.65785 323.916701,165.590202 317.145833,159.808923 C310.374966,154.027644 301.859426,149.392274 291.598958,145.902673 C281.33849,142.413072 269.177154,140.668298 255.114583,140.668298 C237.510329,140.668298 222.197982,143.29848 209.177083,148.558923 C196.156185,153.819366 186.208368,161.345332 179.333333,171.137048 C172.458299,180.928764 169.020833,192.126568 169.020833,204.730798 C169.020833,217.960031 172.276009,229.027628 178.786458,237.933923 C185.296908,246.840218 194.098903,253.871397 205.192708,259.027673 C216.286514,264.183949 230.062418,268.689112 246.520833,272.543298 C258.812561,275.355812 268.630172,278.012036 275.973958,280.512048 C283.317745,283.012061 289.307268,286.631816 293.942708,291.371423 C298.578148,296.11103 300.895833,302.282843 300.895833,309.887048 C300.895833,319.470429 296.599001,327.465141 288.005208,333.871423 C279.411415,340.277705 268.239652,343.480798 254.489583,343.480798 C244.489533,343.480798 236.416697,341.892272 230.270833,338.715173 C224.124969,335.538074 219.359392,331.501656 215.973958,326.605798 C212.588525,321.70994 209.437515,315.616251 206.520833,308.324548 C204.124988,302.178684 201.234392,297.543314 197.848958,294.418298 C194.463525,291.293282 190.322941,289.730798 185.427083,289.730798 C179.385386,289.730798 174.411478,291.735986 170.505208,295.746423 C166.598939,299.75686 164.645833,304.57452 164.645833,310.199548 C164.645833,319.887096 167.901009,329.860955 174.411458,340.121423 C180.921908,350.381891 189.385365,358.584934 199.802083,364.730798 C214.489657,373.272507 233.135304,377.543298 255.739583,377.543298 C274.593844,377.543298 290.895765,374.418329 304.645833,368.168298 C318.395902,361.918267 328.838506,353.27252 335.973958,342.230798 C343.109411,331.189076 346.677083,318.741284 346.677083,304.887048 Z" id="path-1"></path>
        <filter x="-1.5%" y="0.2%" width="103.0%" height="99.5%" filterUnits="objectBoundingBox" id="filter-2">
            <feGaussianBlur stdDeviation="5" in="SourceAlpha" result="shadowBlurInner1"></feGaussianBlur>
            <feOffset dx="1" dy="1" in="shadowBlurInner1" result="shadowOffsetInner1"></feOffset>
            <feComposite in="shadowOffsetInner1" in2="SourceAlpha" operator="arithmetic" k2="-1" k3="1" result="shadowInnerInner1"></feComposite>
            <feColorMatrix values="0 0 0 0 0   0 0 0 0 0   0 0 0 0 0  0 0 0 0.5 0" type="matrix" in="shadowInnerInner1"></feColorMatrix>
        </filter>
    </defs>
    <g id="logo" stroke="none" stroke-width="1" fill="none" fill-rule="evenodd">
        <g id="分组" fill-rule="nonzero">
            <path d="M286,17.3205081 L447.702503,110.679492 C466.266568,121.39746 477.702503,141.205081 477.702503,162.641016 L477.702503,349.358984 C477.702503,370.794919 466.266568,390.60254 447.702503,401.320508 L286,494.679492 C267.435935,505.39746 244.564065,505.39746 226,494.679492 L64.2974966,401.320508 C45.733432,390.60254 34.2974966,370.794919 34.2974966,349.358984 L34.2974966,162.641016 C34.2974966,141.205081 45.733432,121.39746 64.2974966,110.679492 L226,17.3205081 C244.564065,6.60254038 267.435935,6.60254038 286,17.3205081 Z" id="多边形" fill="#F5A623"></path>
            <g id="合并形状">
                <use fill="#2A2F36" xlink:href="#path-1"></use>
                <use fill="black" fill-opacity="1" filter="url(#filter-2)" xlink:href="#path-1"></use>
            </g>
        </g>
    </g>
</svg>